<?xml version="1.0" standalone="no"?>
<!DOCTYPE svg PUBLIC "-//W3C//DTD SVG 20010904//EN"
 "http://www.w3.org/TR/2001/REC-SVG-20010904/DTD/svg10.dtd">
<svg version="1.0" xmlns="http://www.w3.org/2000/svg"
 width="200.000000pt" height="200.000000pt" viewBox="0 0 200.000000 200.000000"
 preserveAspectRatio="xMidYMid meet">

<g transform="translate(0.000000,200.000000) scale(0.100000,-0.100000)"
fill="#000000" stroke="none">
<path d="M1373 1521 c-17 -11 -34 -29 -38 -41 -5 -15 -12 -19 -23 -14 -10 4
-32 9 -50 12 -28 4 -38 -1 -72 -37 l-39 -41 -172 0 c-154 0 -177 -2 -215 -21
-31 -15 -48 -32 -63 -63 -12 -23 -21 -50 -21 -59 0 -10 -8 -17 -20 -17 -11 0
-20 -4 -20 -10 0 -5 9 -10 20 -10 17 0 20 -7 20 -40 0 -33 -3 -40 -20 -40 -11
0 -20 -4 -20 -10 0 -5 9 -10 20 -10 17 0 20 -7 20 -40 0 -33 -3 -40 -20 -40
-11 0 -20 -4 -20 -10 0 -5 9 -10 20 -10 17 0 20 -7 20 -40 0 -33 -3 -40 -20
-40 -11 0 -20 -4 -20 -10 0 -5 9 -10 20 -10 17 0 20 -7 20 -40 0 -33 -3 -40
-20 -40 -11 0 -20 -4 -20 -10 0 -5 9 -10 20 -10 15 0 20 -7 20 -25 0 -32 -14
-32 -52 0 -16 14 -42 25 -57 25 -32 0 -77 -31 -86 -60 -4 -11 -15 -20 -26 -20
-10 0 -27 -8 -37 -18 -10 -10 -33 -24 -51 -31 -59 -25 -66 -108 -11 -136 34
-17 200 -21 200 -5 0 6 -38 10 -93 10 -78 0 -97 3 -110 18 -34 38 -9 102 39
102 11 0 25 9 32 20 8 13 23 20 42 20 22 0 30 5 30 18 0 10 7 28 16 40 28 41
108 23 127 -29 4 -11 7 -12 18 -1 19 18 63 15 82 -6 22 -25 21 -44 -3 -65 -11
-9 -20 -22 -20 -28 0 -6 9 -1 19 12 19 23 21 23 48 9 34 -19 43 -63 17 -91
-13 -14 -31 -19 -71 -19 -29 0 -53 -4 -53 -10 0 -5 7 -10 16 -10 9 0 29 -11
45 -25 16 -13 45 -27 64 -31 31 -6 35 -10 35 -38 0 -31 1 -31 50 -31 50 0 50
0 50 33 l0 32 177 0 c158 0 181 2 219 21 31 15 48 32 63 63 20 40 21 60 21
329 l0 287 136 0 136 0 34 34 c24 24 34 43 34 64 0 35 -40 88 -73 97 -12 4
-32 18 -43 32 -16 19 -32 26 -60 27 -35 1 -41 5 -56 38 -28 63 -96 84 -155 49z
m108 -14 c23 -17 39 -52 39 -81 0 -26 14 -35 25 -16 17 27 95 -3 95 -37 0 -7
11 -13 25 -13 14 0 37 -11 50 -25 33 -32 33 -78 0 -110 -23 -24 -29 -25 -158
-25 l-134 0 -5 51 c-9 93 -63 140 -170 148 l-73 6 27 28 c30 30 73 36 104 12
26 -20 31 -19 38 10 14 55 93 86 137 52z m-130 -173 c21 -21 32 -44 36 -72 l6
-42 -41 0 c-74 0 -72 9 -72 -356 0 -209 4 -324 10 -324 6 0 10 23 10 50 l0 50
46 0 47 0 -7 -32 c-4 -18 -20 -46 -36 -63 l-30 -30 -253 -3 c-170 -2 -263 1
-283 8 l-29 12 32 13 c59 25 71 90 25 133 -15 15 -33 39 -40 55 -6 15 -23 32
-37 39 -34 15 -34 48 0 48 14 0 25 5 25 10 0 6 -11 10 -25 10 -22 0 -25 4 -25
40 0 36 3 40 25 40 14 0 25 5 25 10 0 6 -11 10 -25 10 -22 0 -25 4 -25 40 0
36 3 40 25 40 14 0 25 5 25 10 0 6 -11 10 -25 10 -22 0 -25 4 -25 40 0 36 3
40 25 40 14 0 25 5 25 10 0 6 -11 10 -25 10 -22 0 -25 4 -25 40 0 36 3 40 25
40 14 0 25 5 25 10 0 6 -11 10 -25 10 -30 0 -34 28 -8 71 33 56 52 59 335 57
l258 -3 31 -31z m39 -174 l0 -40 -45 0 c-43 0 -45 1 -45 28 0 37 17 52 57 52
32 0 33 -1 33 -40z m0 -110 l0 -50 -45 0 -45 0 0 50 0 50 45 0 45 0 0 -50z m0
-110 l0 -40 -45 0 -45 0 0 40 0 40 45 0 45 0 0 -40z m0 -110 l0 -50 -45 0 -45
0 0 50 0 50 45 0 45 0 0 -50z m0 -120 l0 -50 -45 0 -45 0 0 50 0 50 45 0 45 0
0 -50z m-470 -249 c0 -15 -7 -19 -30 -19 -22 1 -30 6 -30 20 0 13 7 18 30 18
23 0 30 -5 30 -19z"/>
<path d="M1466 1389 c17 -5 35 -17 40 -27 7 -14 15 -17 34 -11 24 7 24 7 3 8
-13 1 -32 10 -43 21 -11 11 -30 20 -42 19 -19 -1 -17 -3 8 -10z"/>
<path d="M1580 1319 c0 -5 9 -9 20 -9 11 0 20 2 20 4 0 2 -9 6 -20 9 -11 3
-20 1 -20 -4z"/>
<path d="M852 1188 c-17 -17 -17 -239 0 -256 17 -17 319 -17 336 0 17 17 17
239 0 256 -14 14 -168 17 -168 2 0 -5 35 -10 78 -12 l77 -3 0 -115 0 -115 -27
-3 c-23 -3 -30 2 -42 31 -7 19 -24 42 -37 50 -21 16 -22 17 -6 35 21 23 21 41
1 70 -20 30 -68 30 -88 0 -20 -29 -20 -47 1 -70 16 -18 15 -19 -6 -35 -13 -8
-30 -31 -37 -50 -12 -29 -19 -34 -42 -31 l-27 3 0 115 0 115 28 3 c15 2 27 8
27 13 0 13 -54 11 -68 -3z m199 -74 c17 -21 0 -49 -31 -49 -31 0 -48 28 -31
49 8 9 21 16 31 16 10 0 23 -7 31 -16z m13 -115 c14 -11 26 -29 26 -40 0 -17
-8 -19 -70 -19 -62 0 -70 2 -70 19 0 22 44 61 70 61 10 0 29 -9 44 -21z"/>
<path d="M940 1190 c0 -5 14 -10 30 -10 17 0 30 5 30 10 0 6 -13 10 -30 10
-16 0 -30 -4 -30 -10z"/>
<path d="M580 550 c0 -5 5 -10 10 -10 6 0 10 5 10 10 0 6 -4 10 -10 10 -5 0
-10 -4 -10 -10z"/>
<path d="M620 550 c0 -5 9 -10 20 -10 11 0 20 5 20 10 0 6 -9 10 -20 10 -11 0
-20 -4 -20 -10z"/>
</g>
</svg>
